@startuml
title
    <img:assets/logos/calypso.svg{scale=0.2}>

    Terminal Calypso Crypto Asymmetric API 0.3.+ (2026-09-14)
end title

' == THEME (class) ==

'Couleurs issues de : https://htmlcolorcodes.com/fr/tableau-de-couleur/tableau-de-couleur-design-plat/
!define C_GREY1 F8F9F9
!define C_GREY2 F2F3F4
!define C_GREY3 E5E7E9
!define C_GREY4 D7DBDD
!define C_GREY5 CACFD2
!define C_GREY6 BDC3C7
!define C_LINK 3498DB
!define C_USE 27AE60
!define C_THROW 2C3E50

' -- Styles that don't work with new version of plantuml --
skinparam stereotypeABorderColor #A9DCDF
skinparam stereotypeIBorderColor #B4A7E5
skinparam stereotypeCBorderColor #ADD1B2
skinparam stereotypeEBorderColor #EB937F
' -- END --

skinparam ClassBorderThickness 2
skinparam ArrowThickness 2

' Yellow
skinparam ClassBackgroundColor #FEFECE
skinparam ClassBorderColor #D4AC0D
' Red
skinparam ClassBackgroundColor<<red>> #FDEDEC
skinparam ClassBorderColor<<red>> #E74C3C
hide <<red>> stereotype
' Purple
skinparam ClassBackgroundColor<<purple>> #F4ECF7
skinparam ClassBorderColor<<purple>> #8E44AD
hide <<purple>> stereotype
' blue
skinparam ClassBackgroundColor<<blue>> #EBF5FB
skinparam ClassBorderColor<<blue>> #3498DB
hide <<blue>> stereotype
' Green
skinparam ClassBackgroundColor<<green>> #E9F7EF
skinparam ClassBorderColor<<green>> #27AE60
hide <<green>> stereotype
' Grey
skinparam ClassBackgroundColor<<grey>> #EAECEE
skinparam ClassBorderColor<<grey>> #2C3E50
hide <<grey>> stereotype

' == CONTENT ==

legend top
    * __Text__
    *** <color:blue><b>New element added since the last version
    *** <color:red><s><b>Element marked as deprecated since the last version
    *** <s><b>Element marked as deprecated
    *** <color:grey><b>Work in progress...
    * __Object__
    *** <back:#FEFECE><color:#D4AC0D><b>Interface that cannot be instantiated directly by the factory
    *** <back:#FDEDEC><color:#E74C3C><b>SPI (Service Provider Interface) to be provided by the end-user
    *** <back:#E9F7EF><color:#27AE60><b>Data, constants, enumeration or error
end legend

package "calypso.crypto.asymmetric" as api {
    package "transaction" as transaction {
        package spi {
            interface AsymmetricCryptoCardTransactionManagerFactorySpi <<red>> {
                +createCardTransactionManager() → AsymmetricCryptoCardTransactionManagerSpi
            }
            interface AsymmetricCryptoCardTransactionManagerSpi <<red>> {
                +initTerminalPkiSession(cardPublicKey: <color:blue>ByteArray</color>) → Unit
                {method} <size:10><color:#7F8C8D>    ⚠ errors: AsymmetricCrypto</color></size>
                +updateTerminalPkiSession(cardApdu: ByteArray) → Unit
                {method} <size:10><color:#7F8C8D>    ⚠ errors: AsymmetricCrypto</color></size>
                +isCardPkiSessionValid(cardSessionSignature: ByteArray) → Boolean
                {method} <size:10><color:#7F8C8D>    ⚠ errors: AsymmetricCrypto</color></size>
            }
        }
    }
    exception "AsymmetricCrypto" as AsymmetricCrypto <<error>> <<green>> {
        +val message: String
        +val cause: Any?
    }
    class "AsymmetricCryptoApiProperties" as ApiProperties <<constants>> <<green>> {
        +const VERSION: String = "0.3"
    }
    package "certificate" as certificate {
        package spi {
            together {
            interface PcaCertificateSpi <<red>> {
                +checkCertificateAndGetContent() → <color:blue>CaCertificateContent</color>
                {method} <size:10><color:#7F8C8D>    ⚠ errors: CertificateValidation, AsymmetricCrypto</color></size>
            }
            interface CaCertificateParserSpi <<red>> {
                +getCertificateType() → Byte

                +parseCertificate(cardOutputData: ByteArray) → CaCertificateSpi
                {method} <size:10><color:#7F8C8D>    ⚠ errors: CertificateValidation</color></size>
            }
            interface CaCertificateSpi <<red>> {
                +getIssuerPublicKeyReference() → ByteArray

                +checkCertificateAndGetContent(issuerCertificateContent: <color:blue>CaCertificateContent</color>) → <color:blue>CaCertificateContent</color>
                {method} <size:10><color:#7F8C8D>    ⚠ errors: CertificateValidation, AsymmetricCrypto</color></size>
            }
            interface CardCertificateParserSpi <<red>> {
                +getCertificateType() → Byte

                +parseCertificate(cardOutputData: ByteArray) → CardCertificateSpi
                {method} <size:10><color:#7F8C8D>    ⚠ errors: CertificateValidation</color></size>
            }
            interface CardCertificateSpi <<red>> {
                +getIssuerPublicKeyReference() → ByteArray
                +getCardAid() → ByteArray
                +getCardSerialNumber() → ByteArray

                +checkCertificateAndGetPublicKey(issuerCertificateContent: <color:blue>CaCertificateContent</color>) → <color:blue>ByteArray</color>
                {method} <size:10><color:#7F8C8D>    ⚠ errors: CertificateValidation, AsymmetricCrypto</color></size>
            }
            }
            class "<color:blue>CaCertificateContent" as CaCertificateContent <<data>> <<green>> {
                +val publicKey: PublicKey
                +val publicKeyReference: ByteArray

                +val startDate: Long
                +val endDate: Long

                +val isAidTruncated: Boolean
                +val aid: ByteArray?

                +val isCaCertificatesAuthenticationAllowed: Boolean
                +val isCardCertificatesAuthenticationAllowed: Boolean
            }
        }
        exception "CertificateValidation" as CertificateValidation <<error>> <<green>> {
            +val message: String
            +val cause: Any?
        }
    }
}

' Associations

AsymmetricCryptoCardTransactionManagerFactorySpi ..> AsymmetricCryptoCardTransactionManagerSpi #C_LINK : provide >

CaCertificateParserSpi .right.> CaCertificateSpi #C_LINK : provide >
CardCertificateParserSpi .right.> CardCertificateSpi #C_LINK : provide >

PcaCertificateSpi ..> CaCertificateContent #C_LINK : provide >

CaCertificateSpi .right.> CaCertificateContent #C_USE : use >
CaCertificateSpi .right.> CaCertificateContent #C_LINK : provide >

CardCertificateSpi .up.> CaCertificateContent #C_USE : use >

' == LAYOUT ==

PcaCertificateSpi -[hidden]- CaCertificateSpi
CaCertificateParserSpi -[hidden]- CardCertificateParserSpi
CardCertificateSpi -[hidden]- CertificateValidation
AsymmetricCryptoCardTransactionManagerSpi -[hidden]- AsymmetricCrypto
AsymmetricCrypto -[hidden]- ApiProperties

' == STYLE ==

package api #C_GREY1 {}
package api.transaction #C_GREY2 {}
package api.transaction.spi #C_GREY3 {}
package api.certificate #C_GREY2 {}
package api.certificate.spi #C_GREY3 {}

@enduml